<svg width="230" height="20" viewBox="0 0 230 20" fill="none" xmlns="http://www.w3.org/2000/svg">
<rect x="202.082" width="27.3118" height="20" rx="2" fill="#EE3831"/>
<path d="M227.734 3.01172H204.086V17.2053H227.734V3.01172Z" fill="#EE3831"/>
<path d="M218.285 10.8616C218.271 10.833 218.256 10.8036 218.242 10.7734C218.256 10.8036 218.271 10.833 218.285 10.8616Z" fill="#733D96"/>
<path d="M209.021 12.9453H208.21C208.107 12.9453 208.013 13.0045 207.969 13.0969L207.041 15.0711L206.096 13.0954C206.052 13.0042 205.958 12.9453 205.856 12.9453H205.074C204.928 12.9453 204.809 13.063 204.809 13.2078V15.9665C204.809 16.1113 204.928 16.229 205.074 16.229H205.478C205.624 16.229 205.743 16.1113 205.743 15.9665V14.37L206.579 16.0807C206.623 16.1709 206.716 16.229 206.818 16.229H207.253C207.356 16.229 207.45 16.1702 207.493 16.0789L208.334 14.3208V15.9665C208.334 16.1113 208.453 16.229 208.599 16.229H209.021C209.167 16.229 209.286 16.1113 209.286 15.9665V13.2078C209.286 13.063 209.167 12.9453 209.021 12.9453Z" fill="white"/>
<path d="M212.284 13.0762C212.237 12.9956 212.149 12.9453 212.055 12.9453H211.486C211.392 12.9453 211.305 12.9949 211.258 13.0744L209.615 15.8335C209.567 15.9138 209.566 16.014 209.612 16.0953C209.659 16.1777 209.748 16.229 209.844 16.229H210.286C210.381 16.229 210.469 16.1787 210.516 16.0978L210.803 15.6056C210.804 15.6078 210.806 15.6103 210.807 15.6128C210.851 15.6905 210.935 15.7387 211.025 15.7387H212.769L212.978 16.0978C213.025 16.1787 213.113 16.229 213.208 16.229H213.675C213.771 16.229 213.859 16.178 213.906 16.096C213.952 16.015 213.952 15.9152 213.905 15.835L212.284 13.0762ZM211.166 14.9826L211.749 13.9834L212.33 14.9826H211.177C211.173 14.9826 211.17 14.9826 211.166 14.9826Z" fill="white"/>
<path d="M218.067 14.2128H216.313C216.167 14.2128 216.048 14.3304 216.048 14.4752V14.7552C216.048 14.9 216.167 15.0176 216.313 15.0176H217.403V15.1849C217.125 15.3703 216.73 15.4794 216.329 15.4794C215.567 15.4794 215.054 15.1214 215.054 14.5883C215.054 14.0501 215.555 13.7024 216.329 13.7024C216.754 13.7024 217.156 13.844 217.331 14.0541C217.423 14.1653 217.585 14.1842 217.7 14.0969L217.995 13.8693C218.056 13.8226 218.093 13.7524 218.099 13.6771C218.105 13.603 218.079 13.5298 218.027 13.4756C217.692 13.1215 217.025 12.8926 216.329 12.8926C214.955 12.8926 214.031 13.5741 214.031 14.5883C214.031 15.6025 214.955 16.284 216.329 16.284C217.049 16.284 217.74 16.0753 218.227 15.7123C218.293 15.6631 218.332 15.585 218.332 15.5026V14.4752C218.332 14.3304 218.213 14.2128 218.067 14.2128Z" fill="white"/>
<path d="M222.082 12.9453H221.654C221.508 12.9453 221.389 13.063 221.389 13.2078V15.0037L219.815 13.0445C219.764 12.9813 219.689 12.9453 219.607 12.9453H219.055C218.908 12.9453 218.789 13.063 218.789 13.2078V15.9665C218.789 16.1113 218.908 16.229 219.055 16.229H219.482C219.629 16.229 219.747 16.1113 219.747 15.9665V14.3864L221.144 16.1292C221.194 16.1926 221.27 16.229 221.352 16.229H222.082C222.228 16.229 222.347 16.1113 222.347 15.9665V13.2078C222.347 13.063 222.228 12.9453 222.082 12.9453Z" fill="white"/>
<path d="M226.979 15.835L225.359 13.0766C225.311 12.9956 225.223 12.9453 225.129 12.9453H224.56C224.467 12.9453 224.379 12.9949 224.331 13.0744L222.689 15.8332C222.641 15.9134 222.64 16.0136 222.686 16.0949C222.733 16.1777 222.822 16.229 222.918 16.229H223.36C223.455 16.229 223.543 16.1787 223.59 16.0978L223.877 15.6056C223.879 15.6078 223.88 15.6103 223.881 15.6124C223.925 15.6902 224.009 15.7387 224.099 15.7387H225.844L226.052 16.0978C226.1 16.1787 226.188 16.229 226.282 16.229H226.749C226.845 16.229 226.933 16.178 226.98 16.096C227.026 16.015 227.026 15.9152 226.979 15.835ZM224.241 14.9826L224.823 13.9834L225.404 14.9826H224.251C224.248 14.9826 224.244 14.9826 224.241 14.9826Z" fill="white"/>
<path d="M214.267 10.6919C214.232 10.6295 214.163 10.5938 214.093 10.5999C214.022 10.6059 213.961 10.653 213.938 10.7204C213.729 11.3163 213.595 11.2913 213.589 11.2924C213.245 11.2799 212.763 9.9979 212.337 8.86708C212.089 8.20521 211.97 7.83611 211.656 7.14179C211.626 7.07688 211.562 7.03552 211.49 7.03516H211.49C211.419 7.03516 211.355 7.07653 211.325 7.14107L211.122 7.58648C211.1 7.63356 211.1 7.68776 211.121 7.73519C211.377 8.31183 211.446 8.53685 211.67 9.12277C212.31 10.7914 212.815 12.1094 213.584 12.1254H213.596C213.971 12.1254 214.164 11.9874 214.494 11.2307C214.515 11.1811 214.509 11.1241 214.483 11.0767L214.267 10.6919Z" fill="white"/>
<path d="M214.819 8.10747V8.10783L215 8.45482C215.031 8.51544 215.094 8.55253 215.161 8.55253C215.168 8.55253 215.175 8.55217 215.183 8.5511C215.258 8.54183 215.32 8.48691 215.337 8.41345L215.592 7.34753C215.66 7.06581 215.73 6.77446 215.814 6.49451C215.82 6.47597 215.825 6.45742 215.831 6.43853V6.44102C215.85 6.3804 215.871 6.31728 215.896 6.25523C215.921 6.31728 215.943 6.3804 215.961 6.44102V6.43853C215.967 6.45742 215.973 6.47597 215.979 6.49451C216.062 6.77446 216.133 7.06581 216.2 7.34753L216.455 8.41345C216.473 8.48691 216.535 8.54183 216.609 8.5511C216.617 8.55217 216.624 8.55253 216.632 8.55253C216.699 8.55253 216.761 8.51544 216.792 8.45482L216.973 8.10783V8.10747C216.992 8.07146 217.017 8.0226 217.024 7.95913C217.032 7.89422 217.018 7.83787 217.008 7.80043C216.865 7.24376 216.845 7.19348 216.678 6.62468C216.601 6.3615 216.508 6.05624 216.378 5.76132C216.313 5.6119 216.234 5.4582 216.096 5.34372C216.037 5.29558 215.967 5.2724 215.896 5.27347C215.825 5.2724 215.756 5.29558 215.697 5.34372C215.559 5.4582 215.479 5.6119 215.414 5.76132C215.285 6.05624 215.192 6.3615 215.114 6.62468C214.948 7.19348 214.927 7.24376 214.784 7.80043C214.775 7.83787 214.76 7.89422 214.768 7.95913C214.775 8.0226 214.801 8.07146 214.819 8.10747Z" fill="white"/>
<path d="M220.462 7.14107C220.433 7.07652 220.369 7.03516 220.298 7.03516H220.297C220.226 7.03516 220.162 7.07688 220.132 7.14179C219.818 7.83611 219.699 8.20521 219.45 8.86708C219.025 9.9979 218.543 11.2799 218.199 11.2924C218.193 11.2913 218.059 11.3163 217.85 10.7204C217.826 10.653 217.765 10.6059 217.694 10.5995C217.625 10.5934 217.555 10.6295 217.52 10.6919L217.305 11.0767C217.279 11.1237 217.273 11.1811 217.294 11.2307C217.623 11.9874 217.816 12.1254 218.192 12.1254H218.204C218.973 12.1094 219.478 10.7914 220.118 9.12277C220.342 8.53685 220.411 8.31183 220.667 7.73519C220.688 7.68776 220.688 7.63356 220.666 7.58612L220.462 7.14107Z" fill="white"/>
<path d="M223.83 6.27804C223.821 6.23489 223.812 6.19281 223.802 6.15287C223.801 6.14574 223.799 6.13861 223.797 6.13147C223.795 6.12006 223.792 6.10901 223.79 6.09795C223.788 6.09082 223.786 6.08369 223.784 6.07691C223.78 6.05979 223.776 6.04303 223.771 6.02663C223.771 6.02378 223.77 6.02057 223.769 6.01771C223.767 6.01094 223.766 6.00452 223.764 5.99917C223.764 5.99846 223.764 5.99774 223.764 5.99703C223.763 5.99382 223.762 5.99026 223.761 5.98705C223.464 4.88012 223.09 3.87946 222.362 3.87305H222.358C221.933 3.87305 221.648 4.06526 221.028 5.26812C221.002 5.31876 221.001 5.37831 221.026 5.42966L221.224 5.84298C221.254 5.90574 221.317 5.94568 221.387 5.94603H221.387C221.457 5.94603 221.52 5.90645 221.55 5.84404C222.141 4.62336 222.319 4.70075 222.358 4.70217C222.578 4.71251 223.321 5.11977 223.653 9.93118C223.602 10.4896 223.469 10.8259 223.296 10.8313C223.296 10.8316 223.295 10.8316 223.294 10.8316C223.017 10.8316 222.409 9.23329 222.045 8.27721C221.311 6.34722 220.552 4.35162 219.606 4.35162C219.6 4.35162 219.594 4.35162 219.588 4.35198C218.691 4.37515 218.122 5.79769 217.52 7.30402C217.052 8.47406 216.524 9.7946 215.959 9.88483V9.88412C215.937 9.88768 215.916 9.88982 215.894 9.88982C215.872 9.88982 215.85 9.88768 215.829 9.88412V9.88483C215.263 9.7946 214.735 8.47406 214.267 7.30402C213.665 5.79769 213.096 4.37515 212.199 4.35198C212.193 4.35162 212.188 4.35162 212.182 4.35162C211.235 4.35162 210.476 6.34722 209.742 8.27721C209.378 9.23329 208.77 10.8316 208.493 10.8316C208.492 10.8316 208.492 10.8316 208.491 10.8313C208.318 10.8259 208.185 10.4896 208.134 9.93118C208.467 5.11977 209.209 4.71251 209.429 4.70217C209.468 4.70075 209.646 4.62336 210.237 5.84404C210.267 5.90645 210.331 5.94603 210.4 5.94603H210.401C210.47 5.94568 210.534 5.90574 210.563 5.84298L210.762 5.42966C210.786 5.37831 210.785 5.31876 210.759 5.26812C210.139 4.06526 209.854 3.87305 209.429 3.87305H209.425C208.697 3.87946 208.324 4.88012 208.027 5.98705C208.025 5.99026 208.024 5.99382 208.024 5.99703C208.023 5.99774 208.023 5.99846 208.023 5.99917C208.022 6.00452 208.02 6.01094 208.018 6.01771C208.018 6.02057 208.017 6.02378 208.016 6.02663C208.012 6.04303 208.007 6.05979 208.003 6.07691C208.002 6.08369 208 6.09082 207.998 6.09795C207.995 6.10901 207.993 6.12006 207.99 6.13147C207.988 6.13861 207.987 6.14574 207.985 6.15287C207.976 6.19281 207.967 6.23489 207.957 6.27804C207.631 7.72268 207.124 10.853 207.872 11.8016C208.029 12.001 208.247 12.103 208.481 12.103C209.305 12.0965 209.874 10.5264 210.532 8.70836C211.03 7.33683 211.648 5.63079 212.186 5.63079H212.19C212.664 5.63721 213.019 6.81582 213.363 7.9559C213.884 9.68441 214.475 11.6436 215.892 11.6465H215.893H215.893H215.894H215.894H215.895C217.312 11.6436 217.903 9.68441 218.425 7.9559C218.768 6.81582 219.124 5.63721 219.598 5.63079H219.601C220.14 5.63079 220.758 7.33683 221.255 8.70836C221.913 10.5264 222.482 12.0965 223.306 12.103C223.541 12.103 223.758 12.001 223.915 11.8016C224.664 10.853 224.156 7.72268 223.83 6.27804Z" fill="white"/>
<path d="M178.007 18.1013C178.007 19.0874 177.188 19.8882 176.18 19.8882H152.86C151.848 19.8882 151.031 19.0874 151.031 18.1013V1.9852C151.031 0.998619 151.848 0.197266 152.86 0.197266H176.18C177.188 0.197266 178.007 0.998619 178.007 1.9852V18.1013Z" fill="white"/>
<path d="M152.783 20C151.69 19.999 150.801 19.1352 150.801 18.0605V1.94447C150.801 0.868798 151.69 0.00453143 152.783 0H176.102C177.193 0.00453143 178.084 0.868798 178.084 1.94447V18.0605C178.084 19.1352 177.193 19.999 176.102 20H152.783ZM151.108 1.94447V18.0605C151.112 18.9565 151.855 19.6904 152.783 19.6924H176.102C177.028 19.6904 177.772 18.9565 177.774 18.0605V1.94447C177.772 1.04397 177.028 0.31208 176.102 0.31208H152.783C151.855 0.31208 151.112 1.04397 151.108 1.94447Z" fill="#007EB8"/>
<path d="M165.509 11.1615C168.062 11.1731 170.393 9.07965 170.393 6.53365C170.393 3.74906 168.062 1.82422 165.509 1.82422H163.313C160.73 1.82422 158.605 3.74906 158.605 6.53365C158.605 9.07965 160.73 11.1731 163.313 11.1615H165.509Z" fill="#007EB8"/>
<path d="M163.321 2.20898C160.961 2.21049 159.049 4.12175 159.047 6.48452C159.049 8.84276 160.961 10.756 163.321 10.756C165.683 10.756 167.597 8.84276 167.597 6.48452C167.597 4.12175 165.683 2.21049 163.321 2.20898ZM160.611 6.48452C160.615 5.33032 161.336 4.34524 162.35 3.95564V9.01088C161.336 8.62078 160.615 7.63772 160.611 6.48452ZM164.29 9.0134V3.95564C165.308 4.34424 166.029 5.3278 166.032 6.48452C166.029 7.64023 165.308 8.6228 164.29 9.0134Z" fill="white"/>
<path d="M153.432 12.0734C153.432 11.6325 153.202 11.6592 152.98 11.6551V11.5293C153.173 11.5358 153.369 11.5358 153.559 11.5358C153.767 11.5358 154.046 11.5293 154.409 11.5293C155.68 11.5293 156.372 12.377 156.372 13.2452C156.372 13.7325 156.089 14.9562 154.352 14.9562C154.101 14.9562 153.869 14.9436 153.639 14.9436C153.42 14.9436 153.202 14.9516 152.98 14.9562V14.8283C153.275 14.7981 153.42 14.787 153.432 14.4538V12.0734ZM153.912 14.3743C153.912 14.7533 154.185 14.7981 154.425 14.7981C155.486 14.7981 155.834 13.9978 155.834 13.2659C155.834 12.3468 155.246 11.6843 154.298 11.6843C154.096 11.6843 154.003 11.6979 153.912 11.704V14.3743Z" fill="#2F292A"/>
<path d="M156.547 14.8275H156.639C156.778 14.8275 156.876 14.8275 156.876 14.665V13.3321C156.876 13.1181 156.802 13.0889 156.618 12.9888V12.9113C156.851 12.8423 157.125 12.7492 157.144 12.7341C157.179 12.7159 157.209 12.7079 157.234 12.7079C157.258 12.7079 157.268 12.7401 157.268 12.7794V14.665C157.268 14.8275 157.376 14.8275 157.513 14.8275H157.598V14.9554C157.43 14.9554 157.258 14.9428 157.081 14.9428C156.904 14.9428 156.726 14.9509 156.547 14.9554V14.8275ZM157.07 11.9544C156.944 11.9544 156.832 11.8361 156.832 11.7102C156.832 11.5854 156.95 11.4727 157.07 11.4727C157.2 11.4727 157.312 11.5753 157.312 11.7102C157.312 11.8401 157.203 11.9544 157.07 11.9544Z" fill="#2F292A"/>
<path d="M158.063 13.3604C158.063 13.1807 158.01 13.1324 157.779 13.0387V12.9456C157.991 12.8777 158.191 12.8107 158.426 12.707C158.441 12.707 158.455 12.7196 158.455 12.7589V13.076C158.735 12.8777 158.975 12.707 159.306 12.707C159.722 12.707 159.871 13.0136 159.871 13.3961V14.6646C159.871 14.8267 159.978 14.8267 160.115 14.8267H160.203V14.9545C160.031 14.9545 159.86 14.9419 159.682 14.9419C159.509 14.9419 159.33 14.9505 159.153 14.9545V14.8267H159.243C159.381 14.8267 159.477 14.8267 159.477 14.6646V13.3916C159.477 13.1117 159.306 12.9753 159.025 12.9753C158.868 12.9753 158.617 13.1022 158.455 13.2104V14.6646C158.455 14.8267 158.564 14.8267 158.701 14.8267H158.789V14.9545C158.617 14.9545 158.446 14.9419 158.268 14.9419C158.093 14.9419 157.914 14.9505 157.738 14.9545V14.8267H157.828C157.963 14.8267 158.063 14.8267 158.063 14.6646V13.3604Z" fill="#2F292A"/>
<path d="M160.576 13.5975C160.569 13.6423 160.569 13.7163 160.576 13.8809C160.606 14.3495 160.907 14.7336 161.3 14.7336C161.572 14.7336 161.782 14.5871 161.962 14.4029L162.031 14.4708C161.806 14.7703 161.526 15.027 161.123 15.027C160.341 15.027 160.184 14.2715 160.184 13.9579C160.184 12.9924 160.833 12.707 161.177 12.707C161.574 12.707 162.002 12.9592 162.007 13.4802C162.007 13.5114 162.007 13.5376 162.002 13.5683L161.959 13.5975H160.576ZM161.448 13.4399C161.572 13.4399 161.584 13.3775 161.584 13.3186C161.584 13.0689 161.431 12.8681 161.158 12.8681C160.857 12.8681 160.652 13.0886 160.592 13.4399H161.448Z" fill="#2F292A"/>
<path d="M162.117 14.8267H162.251C162.386 14.8267 162.488 14.8267 162.488 14.6646V13.2844C162.488 13.1324 162.307 13.1022 162.232 13.0619V12.9884C162.589 12.8374 162.787 12.707 162.832 12.707C162.86 12.707 162.875 12.7247 162.875 12.773V13.2149H162.884C163.009 13.0237 163.213 12.707 163.513 12.707C163.637 12.707 163.793 12.7926 163.793 12.9683C163.793 13.1022 163.7 13.2195 163.563 13.2195C163.412 13.2195 163.412 13.1022 163.241 13.1022C163.155 13.1022 162.88 13.2149 162.88 13.5114V14.6646C162.88 14.8267 162.977 14.8267 163.115 14.8267H163.391V14.9545C163.12 14.9505 162.912 14.942 162.704 14.942C162.501 14.942 162.293 14.9505 162.117 14.9545V14.8267Z" fill="#2F292A"/>
<path d="M164.01 14.2715C164.075 14.5941 164.272 14.8695 164.629 14.8695C164.92 14.8695 165.027 14.6943 165.027 14.5211C165.027 13.9418 163.956 14.1285 163.956 13.3372C163.956 13.0619 164.179 12.707 164.718 12.707C164.875 12.707 165.085 12.7543 165.276 12.8525L165.312 13.3533H165.198C165.149 13.0433 164.977 12.8681 164.663 12.8681C164.468 12.8681 164.281 12.9804 164.281 13.1892C164.281 13.7656 165.42 13.5884 165.42 14.3591C165.42 14.6832 165.16 15.0275 164.576 15.0275C164.378 15.0275 164.148 14.9565 163.975 14.8589L163.922 14.2956L164.01 14.2715Z" fill="#2F292A"/>
<path d="M169.854 12.414H169.731C169.635 11.8402 169.228 11.6102 168.678 11.6102C168.115 11.6102 167.296 11.9867 167.296 13.1671C167.296 14.1592 168.001 14.8699 168.76 14.8699C169.243 14.8699 169.647 14.5382 169.745 14.0213L169.857 14.05L169.745 14.7662C169.538 14.8951 168.983 15.028 168.662 15.028C167.51 15.028 166.785 14.286 166.785 13.1812C166.785 12.1754 167.682 11.4531 168.646 11.4531C169.041 11.4531 169.425 11.58 169.802 11.7124L169.854 12.414Z" fill="#2F292A"/>
<path d="M170.031 14.8283H170.126C170.262 14.8283 170.361 14.8283 170.361 14.6662V11.9315C170.361 11.6108 170.285 11.6013 170.098 11.5449V11.4669C170.298 11.4045 170.503 11.3174 170.605 11.257C170.657 11.2283 170.699 11.2031 170.713 11.2031C170.745 11.2031 170.753 11.2328 170.753 11.2731V14.6662C170.753 14.8283 170.86 14.8283 170.999 14.8283H171.079V14.9562C170.916 14.9562 170.745 14.9436 170.566 14.9436C170.389 14.9436 170.211 14.9521 170.031 14.9562V14.8283Z" fill="#2F292A"/>
<path d="M173.18 14.6848C173.18 14.7719 173.237 14.778 173.318 14.778C173.377 14.778 173.451 14.7719 173.515 14.7719V14.8756C173.302 14.8962 172.9 15.0004 172.807 15.0291L172.784 15.0155V14.6174C172.489 14.856 172.264 15.0291 171.913 15.0291C171.648 15.0291 171.372 14.856 171.372 14.4452V13.1868C171.372 13.059 171.354 12.9372 171.078 12.9125V12.8209C171.255 12.8123 171.648 12.7852 171.71 12.7852C171.767 12.7852 171.767 12.8209 171.767 12.9276V14.1941C171.767 14.34 171.767 14.7629 172.193 14.7629C172.361 14.7629 172.582 14.6375 172.787 14.4644V13.142C172.787 13.0454 172.55 12.99 172.376 12.9427V12.8541C172.818 12.8239 173.092 12.7852 173.142 12.7852C173.18 12.7852 173.18 12.8209 173.18 12.8722V14.6848Z" fill="#2F292A"/>
<path d="M174.159 13.064C174.352 12.8989 174.62 12.7092 174.889 12.7092C175.46 12.7092 175.803 13.2065 175.803 13.7421C175.803 14.3864 175.331 15.0292 174.628 15.0292C174.265 15.0292 174.074 14.9114 173.947 14.856L173.799 14.9693L173.696 14.9174C173.742 14.627 173.763 14.3401 173.763 14.0421V11.9315C173.763 11.6114 173.692 11.6018 173.504 11.5454V11.4669C173.702 11.4045 173.909 11.3174 174.011 11.2575C174.065 11.2288 174.103 11.2031 174.118 11.2031C174.149 11.2031 174.159 11.2333 174.159 11.2736V13.064ZM174.159 14.4C174.159 14.5887 174.334 14.9023 174.664 14.9023C175.19 14.9023 175.412 14.3864 175.412 13.9485C175.412 13.4174 175.006 12.9775 174.623 12.9775C174.443 12.9775 174.291 13.0948 174.159 13.2065V14.4Z" fill="#2F292A"/>
<path d="M152.977 17.8089H153.013C153.111 17.8089 153.212 17.7953 153.212 17.6558V16.255C153.212 16.1166 153.111 16.105 153.013 16.105H152.977V16.0234C153.081 16.0234 153.241 16.0325 153.373 16.0325C153.507 16.0325 153.667 16.0234 153.792 16.0234V16.105H153.754C153.657 16.105 153.556 16.1166 153.556 16.255V17.6558C153.556 17.7953 153.657 17.8089 153.754 17.8089H153.792V17.8884C153.665 17.8884 153.503 17.8773 153.37 17.8773C153.237 17.8773 153.081 17.8884 152.977 17.8884V17.8089Z" fill="#2F292A"/>
<path d="M153.789 17.9027C153.659 17.9027 153.5 17.8921 153.367 17.8921C153.234 17.8921 153.079 17.9027 152.974 17.9027H152.961V17.8911V17.8111V17.8H152.974H153.01C153.108 17.7975 153.197 17.789 153.197 17.6581V16.2572C153.197 16.1269 153.108 16.1193 153.01 16.1183H152.961V16.1077V16.0156H152.974C153.079 16.0156 153.238 16.0247 153.37 16.0247C153.504 16.0247 153.662 16.0156 153.789 16.0156H153.802V16.0257V16.1183H153.789H153.751C153.654 16.1193 153.565 16.1269 153.564 16.2572V17.6581C153.565 17.789 153.654 17.7975 153.751 17.8H153.802V17.8111V17.9027H153.789ZM153.777 17.8796V17.8217H153.751C153.656 17.8217 153.543 17.8046 153.541 17.6581V16.2572C153.543 16.1103 153.656 16.0936 153.751 16.0936H153.777V16.0388C153.654 16.0388 153.499 16.0488 153.37 16.0488C153.243 16.0488 153.088 16.0388 152.987 16.0388V16.0936H153.01C153.105 16.0936 153.221 16.1103 153.221 16.2572V17.6581C153.221 17.8046 153.105 17.8217 153.01 17.8217H152.987V17.8796C153.088 17.8796 153.239 17.868 153.367 17.868C153.497 17.868 153.652 17.8796 153.777 17.8796Z" fill="#2F292A"/>
<path d="M155.623 17.3634L155.628 17.3573V16.3567C155.628 16.1377 155.478 16.1055 155.397 16.1055H155.339V16.0234C155.466 16.0234 155.588 16.033 155.712 16.033C155.823 16.033 155.933 16.0234 156.041 16.0234V16.1055H156.001C155.889 16.1055 155.763 16.1246 155.763 16.4427V17.6584C155.763 17.7515 155.766 17.8446 155.781 17.9286H155.677L154.302 16.3944V17.4958C154.302 17.7288 154.347 17.8089 154.552 17.8089H154.598V17.8889C154.483 17.8889 154.368 17.8773 154.253 17.8773C154.133 17.8773 154.01 17.8889 153.891 17.8889V17.8089H153.928C154.112 17.8089 154.166 17.6835 154.166 17.4691V16.3441C154.166 16.1951 154.044 16.1055 153.924 16.1055H153.891V16.0234C153.99 16.0234 154.096 16.033 154.195 16.033C154.276 16.033 154.356 16.0234 154.436 16.0234L155.623 17.3634Z" fill="#2F292A"/>
<path d="M155.782 17.941L155.67 17.9365L154.314 16.4249V17.4961C154.317 17.7281 154.354 17.7961 154.553 17.7986H154.608V17.8097V17.9008H154.6C154.484 17.9008 154.368 17.8902 154.254 17.8902C154.134 17.8902 154.011 17.9008 153.892 17.9008H153.879V17.8892V17.7986H153.892H153.929C154.106 17.7961 154.157 17.6843 154.158 17.4699V16.3449C154.158 16.2019 154.042 16.1164 153.925 16.1164H153.879V16.1058V16.0137H153.892C153.994 16.0137 154.098 16.0232 154.196 16.0232C154.278 16.0232 154.354 16.0137 154.446 16.0147L155.618 17.3375V16.357C155.617 16.1425 155.476 16.1174 155.399 16.1164H155.328V16.1058V16.0137H155.34C155.467 16.0137 155.589 16.0232 155.714 16.0232C155.822 16.0232 155.932 16.0137 156.043 16.0137H156.055V16.0242V16.1164H156.043H156.002C155.892 16.1199 155.781 16.1289 155.775 16.4435V17.6586C155.775 17.7523 155.78 17.8454 155.79 17.9249L155.793 17.941H155.782ZM155.678 17.9179H155.767C155.756 17.8353 155.752 17.7498 155.752 17.6586V16.4435C155.752 16.1244 155.888 16.0922 156.002 16.0922H156.03V16.0373C155.926 16.0373 155.819 16.0474 155.714 16.0474C155.592 16.0474 155.473 16.0373 155.352 16.0373V16.0922H155.399C155.48 16.0922 155.641 16.1289 155.641 16.357L155.639 17.3677L155.635 17.3717L155.625 17.3778L154.438 16.0373C154.358 16.0373 154.278 16.0474 154.196 16.0474C154.1 16.0474 154 16.0373 153.904 16.0373V16.0922H153.925C154.051 16.0922 154.18 16.1904 154.18 16.3449V17.4699C154.18 17.6843 154.12 17.8202 153.929 17.8202H153.904V17.8781C154.019 17.8781 154.139 17.8665 154.254 17.8665C154.367 17.8665 154.478 17.8781 154.589 17.8781V17.8202H154.553C154.345 17.8202 154.291 17.7281 154.291 17.4961V16.3665L155.678 17.9179ZM155.625 17.3642L155.635 17.3551L155.625 17.3642ZM155.618 17.3581V17.3556L155.617 17.3551L155.618 17.3581Z" fill="#2F292A"/>
<path d="M156.442 16.1583C156.241 16.1583 156.234 16.2056 156.193 16.4014H156.113C156.124 16.3264 156.137 16.2514 156.145 16.1734C156.158 16.0984 156.162 16.0249 156.162 15.9474H156.227C156.248 16.0269 156.313 16.0249 156.386 16.0249H157.764C157.837 16.0249 157.905 16.0234 157.908 15.9434L157.972 15.9509C157.962 16.0249 157.953 16.0979 157.943 16.1684C157.938 16.2413 157.938 16.3128 157.938 16.3863L157.859 16.414C157.852 16.3163 157.841 16.1583 157.662 16.1583H157.224V17.5793C157.224 17.7852 157.315 17.8103 157.443 17.8103H157.497V17.8898C157.39 17.8898 157.203 17.8783 157.06 17.8783C156.899 17.8783 156.712 17.8898 156.608 17.8898V17.8103H156.658C156.808 17.8103 156.879 17.7967 156.879 17.5868V16.1583H156.442Z" fill="#2F292A"/>
<path d="M157.498 17.9019C157.392 17.9019 157.203 17.8913 157.061 17.8913C156.9 17.8913 156.716 17.9019 156.609 17.9019H156.597V17.8903V17.7997H156.609H156.659C156.809 17.7972 156.867 17.7946 156.872 17.5873V16.1703H156.443V16.1587V16.1461H156.893V17.5873C156.893 17.7997 156.808 17.8213 156.659 17.8213H156.621V17.8787C156.726 17.8787 156.905 17.8676 157.061 17.8676C157.201 17.8676 157.379 17.8787 157.484 17.8787V17.8213H157.444C157.316 17.8213 157.214 17.7886 157.214 17.5797V16.1461H157.663C157.843 16.1461 157.865 16.2997 157.871 16.3983L157.929 16.3777C157.929 16.3087 157.929 16.2383 157.933 16.1683C157.941 16.0988 157.952 16.0324 157.963 15.9629L157.92 15.9554C157.908 16.0344 157.833 16.0379 157.765 16.0379H156.387H156.372C156.31 16.0379 156.243 16.0344 156.218 15.9594H156.175C156.175 16.0334 156.169 16.1069 156.159 16.1748C156.152 16.2513 156.138 16.3193 156.126 16.3913H156.186C156.222 16.205 156.244 16.1436 156.443 16.1461V16.1587V16.1703C156.247 16.1738 156.249 16.2065 156.205 16.4059L156.203 16.4124H156.195H156.102V16.3983C156.114 16.3268 156.126 16.2513 156.137 16.1728C156.146 16.0988 156.152 16.0253 156.152 15.9478V15.9352H156.163H156.236L156.239 15.9458C156.256 16.0117 156.307 16.0138 156.372 16.0148H156.387H157.765C157.842 16.0138 157.894 16.0117 157.899 15.9438L157.901 15.9297L157.91 15.9317L157.988 15.9448L157.987 15.9554C157.975 16.0278 157.963 16.0988 157.957 16.1703C157.952 16.2418 157.952 16.3133 157.952 16.3872V16.3928L157.944 16.3963L157.849 16.433L157.847 16.4144C157.843 16.3168 157.831 16.1703 157.663 16.1703H157.236V17.5797C157.237 17.781 157.318 17.7972 157.444 17.7997H157.51V17.8107V17.9019H157.498Z" fill="#2F292A"/>
<path d="M158.059 17.8089H158.097C158.193 17.8089 158.294 17.7953 158.294 17.6558V16.255C158.294 16.1166 158.193 16.105 158.097 16.105H158.059V16.0234C158.223 16.0234 158.5 16.0325 158.723 16.0325C158.948 16.0325 159.226 16.0234 159.408 16.0234C159.404 16.1387 159.406 16.3149 159.414 16.4322L159.334 16.4543C159.321 16.2802 159.289 16.1397 159.008 16.1397H158.638V16.8389H158.956C159.115 16.8389 159.148 16.7503 159.163 16.6053H159.245C159.242 16.71 159.236 16.8147 159.236 16.9174C159.236 17.0221 159.242 17.1213 159.245 17.224L159.163 17.2391C159.148 17.0795 159.141 16.9738 158.958 16.9738H158.638V17.5969C158.638 17.7696 158.793 17.7696 158.963 17.7696C159.283 17.7696 159.424 17.75 159.505 17.4464L159.579 17.4646C159.546 17.606 159.511 17.7464 159.488 17.8884C159.317 17.8884 159.011 17.8773 158.769 17.8773C158.53 17.8773 158.214 17.8884 158.059 17.8884V17.8089Z" fill="#2F292A"/>
<path d="M159.488 17.9027C159.318 17.9027 159.01 17.8911 158.77 17.8911C158.531 17.8911 158.215 17.9027 158.06 17.9027H158.051V17.8911V17.8111V17.8H158.06H158.099C158.195 17.7975 158.281 17.789 158.285 17.6581V16.2572C158.281 16.1269 158.195 16.1193 158.099 16.1183H158.051V16.1077V16.0156H158.06C158.224 16.0156 158.501 16.0247 158.724 16.0247C158.949 16.0247 159.228 16.0156 159.409 16.0156H159.42V16.0257C159.42 16.0665 159.417 16.1133 159.417 16.1651C159.417 16.2562 159.42 16.3589 159.425 16.4349L159.426 16.444L159.417 16.4455L159.323 16.4717V16.4566C159.307 16.2829 159.284 16.1586 159.01 16.1551H158.649V16.8311H158.957C159.11 16.8311 159.138 16.7515 159.154 16.6076L159.156 16.5975H159.165H159.259V16.6076C159.252 16.7128 159.25 16.817 159.25 16.9197C159.25 17.0218 159.252 17.1235 159.259 17.2262V17.2343L159.249 17.2358L159.156 17.2574L159.154 17.2438C159.138 17.0787 159.135 16.9901 158.959 16.9891H158.649V17.5997C158.649 17.7618 158.79 17.7608 158.964 17.7618C159.284 17.7608 159.415 17.7447 159.495 17.4416L159.497 17.4326L159.51 17.4361L159.592 17.4577V17.4678C159.558 17.6098 159.526 17.7527 159.5 17.8932L159.498 17.9027H159.488ZM159.478 17.8796C159.503 17.7447 159.533 17.6088 159.566 17.4728L159.513 17.4623C159.433 17.7608 159.277 17.7859 158.964 17.7849C158.795 17.7849 158.627 17.7849 158.625 17.5997V16.9655H158.959C159.145 16.9624 159.165 17.0767 159.175 17.2302L159.236 17.2161C159.229 17.118 159.227 17.0203 159.227 16.9197C159.227 16.821 159.229 16.7203 159.236 16.6202H159.175C159.164 16.7596 159.117 16.8552 158.957 16.8537H158.625V16.1329H159.01C159.288 16.1284 159.335 16.2759 159.344 16.441L159.403 16.4259C159.399 16.3504 159.394 16.2527 159.394 16.1651C159.394 16.1193 159.396 16.0755 159.396 16.0388C159.217 16.0388 158.945 16.0488 158.724 16.0488C158.505 16.0488 158.238 16.0388 158.073 16.0388V16.0936H158.099C158.193 16.0936 158.307 16.1103 158.309 16.2572V17.6581C158.307 17.8046 158.193 17.8217 158.099 17.8217H158.073V17.8796C158.227 17.8796 158.537 17.868 158.77 17.868C159.006 17.868 159.307 17.8796 159.478 17.8796Z" fill="#2F292A"/>
<path d="M159.942 16.3068C159.942 16.1105 159.833 16.105 159.75 16.105H159.703V16.0234C159.787 16.0234 159.955 16.0325 160.116 16.0325C160.278 16.0325 160.404 16.0234 160.547 16.0234C160.884 16.0234 161.183 16.1156 161.183 16.4956C161.183 16.7352 161.023 16.8802 160.811 16.9632L161.27 17.6488C161.342 17.7605 161.399 17.7953 161.526 17.8089V17.8884C161.441 17.8884 161.353 17.8773 161.266 17.8773C161.183 17.8773 161.095 17.8884 161.015 17.8884C160.809 17.6201 160.633 17.3297 160.458 17.0221H160.28V17.5934C160.28 17.7998 160.38 17.8089 160.501 17.8089H160.549V17.8884C160.397 17.8884 160.244 17.8773 160.089 17.8773C159.962 17.8773 159.838 17.8884 159.703 17.8884V17.8089H159.75C159.852 17.8089 159.942 17.763 159.942 17.6649V16.3068ZM160.28 16.9265H160.414C160.681 16.9265 160.826 16.8253 160.826 16.5107C160.826 16.2731 160.672 16.1201 160.435 16.1201C160.354 16.1201 160.319 16.1281 160.28 16.1302V16.9265Z" fill="#2F292A"/>
<path d="M161.525 17.9008C161.437 17.9008 161.352 17.8902 161.265 17.8902C161.182 17.8902 161.098 17.9008 161.004 17.8962C160.799 17.6264 160.623 17.3405 160.449 17.0365H160.293V17.5942C160.297 17.7956 160.377 17.7956 160.499 17.7986H160.56V17.8097V17.9008H160.547C160.395 17.9008 160.242 17.8902 160.088 17.8902C159.96 17.8902 159.836 17.9008 159.702 17.9008H159.691V17.8892V17.7986H159.702H159.749C159.846 17.7971 159.925 17.7543 159.925 17.6657V16.3076C159.925 16.1174 159.832 16.1194 159.749 16.1164H159.691V16.1058V16.0137H159.702C159.789 16.0137 159.953 16.0227 160.114 16.0227C160.276 16.0227 160.402 16.0137 160.545 16.0137C160.883 16.0147 161.193 16.1068 161.193 16.4929C161.193 16.736 161.035 16.886 160.829 16.9696L161.277 17.6425C161.352 17.7523 161.398 17.7795 161.527 17.7986H161.537V17.8097V17.9008H161.525ZM160.279 17.0113H160.464L160.468 17.0184C160.64 17.3234 160.816 17.6128 161.014 17.8776C161.094 17.8776 161.182 17.866 161.265 17.866C161.348 17.866 161.43 17.8766 161.515 17.8776V17.8177C161.389 17.8026 161.33 17.7659 161.259 17.6566L160.793 16.9595L160.806 16.9539C161.015 16.8709 161.17 16.7279 161.17 16.4929C161.17 16.1244 160.882 16.0378 160.545 16.0368C160.405 16.0368 160.276 16.0469 160.114 16.0469C159.958 16.0469 159.802 16.0368 159.713 16.0368V16.0922H159.749C159.832 16.0922 159.951 16.1068 159.951 16.3076V17.6657C159.951 17.7704 159.851 17.8197 159.749 17.8197H159.713V17.8776C159.843 17.8776 159.962 17.866 160.088 17.866C160.238 17.866 160.389 17.8776 160.536 17.8776V17.8197H160.499C160.379 17.8197 160.268 17.8061 160.268 17.5942V17.0113H160.279ZM160.279 16.9399H160.268V16.1209H160.279C160.316 16.1174 160.351 16.1083 160.433 16.1083C160.677 16.1083 160.835 16.2659 160.835 16.5115C160.835 16.8291 160.682 16.9399 160.412 16.9399H160.279ZM160.412 16.9157C160.677 16.9122 160.81 16.8226 160.811 16.5115C160.811 16.2784 160.664 16.1335 160.433 16.1335C160.362 16.1335 160.328 16.139 160.293 16.14V16.9157H160.412Z" fill="#2F292A"/>
<path d="M163.342 17.3634L163.345 17.3573V16.3567C163.345 16.1377 163.194 16.1055 163.114 16.1055H163.057V16.0234C163.181 16.0234 163.305 16.033 163.431 16.033C163.541 16.033 163.65 16.0234 163.759 16.0234V16.1055H163.718C163.605 16.1055 163.481 16.1246 163.481 16.4427V17.6584C163.481 17.7515 163.482 17.8446 163.498 17.9286H163.395L162.019 16.3944V17.4958C162.019 17.7288 162.064 17.8089 162.27 17.8089H162.316V17.8889C162.202 17.8889 162.087 17.8773 161.97 17.8773C161.852 17.8773 161.729 17.8889 161.605 17.8889V17.8089H161.644C161.828 17.8089 161.886 17.6835 161.886 17.4691V16.3441C161.886 16.1951 161.762 16.1055 161.643 16.1055H161.605V16.0234C161.71 16.0234 161.813 16.033 161.915 16.033C161.993 16.033 162.073 16.0234 162.152 16.0234L163.342 17.3634Z" fill="#2F292A"/>
<path d="M163.499 17.941L163.387 17.9365L162.031 16.4249V17.4961C162.035 17.7291 162.07 17.7961 162.271 17.7986H162.329V17.8097V17.9008H162.315C162.203 17.9008 162.084 17.8892 161.972 17.8892C161.853 17.8892 161.73 17.9008 161.607 17.9008H161.598V17.8892V17.7986H161.607H161.645C161.821 17.7971 161.872 17.6843 161.874 17.4679V16.3449C161.874 16.2004 161.758 16.1164 161.644 16.1164H161.598V16.1058V16.0137H161.607C161.711 16.0137 161.814 16.0232 161.916 16.0232C161.994 16.0232 162.07 16.0137 162.161 16.0147L163.337 17.3375V16.357C163.337 16.1425 163.192 16.1174 163.114 16.1164H163.045V16.1058V16.0137H163.058C163.183 16.0137 163.306 16.0232 163.432 16.0232C163.539 16.0232 163.649 16.0137 163.761 16.0137H163.772V16.0242V16.1164H163.761H163.719C163.609 16.1199 163.495 16.1289 163.495 16.4435V17.6586C163.495 17.7523 163.495 17.8454 163.509 17.9249L163.511 17.941H163.499ZM163.397 17.9179H163.484C163.471 17.8353 163.469 17.7498 163.469 17.6586V16.4435C163.469 16.1244 163.605 16.0932 163.719 16.0922H163.748V16.0373C163.642 16.0373 163.539 16.0474 163.432 16.0474C163.307 16.0474 163.189 16.0373 163.069 16.0373V16.0922H163.114C163.197 16.0932 163.36 16.1289 163.36 16.357L163.356 17.3677L163.348 17.3717L163.343 17.3803L162.153 16.0373C162.076 16.0373 161.998 16.0474 161.916 16.0474C161.816 16.0474 161.715 16.0373 161.618 16.0373V16.0922H161.644C161.769 16.0932 161.898 16.1878 161.898 16.3449V17.4679C161.898 17.6843 161.837 17.8202 161.645 17.8202H161.618V17.8781C161.734 17.8781 161.855 17.8665 161.972 17.8665C162.084 17.8665 162.196 17.8781 162.303 17.8781V17.8202H162.271C162.061 17.8202 162.009 17.7291 162.008 17.4961V16.3665L163.397 17.9179ZM163.343 17.3642L163.352 17.3551L163.343 17.3642ZM163.337 17.3581V17.3556L163.333 17.3551L163.337 17.3581Z" fill="#2F292A"/>
<path d="M164.188 17.5079C164.16 17.598 164.128 17.668 164.128 17.7158C164.128 17.7959 164.241 17.81 164.33 17.81H164.359V17.8895C164.252 17.8824 164.143 17.8779 164.035 17.8779C163.939 17.8779 163.842 17.8824 163.746 17.8895V17.81H163.762C163.868 17.81 163.955 17.7475 163.996 17.6358L164.422 16.4066C164.457 16.3109 164.504 16.1765 164.523 16.0784C164.607 16.0497 164.714 15.9953 164.765 15.9631C164.772 15.9621 164.778 15.9551 164.786 15.9551C164.795 15.9551 164.8 15.9551 164.805 15.9641C164.812 15.9858 164.821 16.0104 164.829 16.0321L165.322 17.4299C165.354 17.524 165.387 17.6217 165.42 17.7027C165.45 17.7777 165.508 17.81 165.595 17.81H165.611V17.8895C165.491 17.8824 165.37 17.8779 165.244 17.8779C165.112 17.8779 164.979 17.8824 164.841 17.8895V17.81H164.872C164.932 17.81 165.037 17.7984 165.037 17.7329C165.037 17.6982 165.014 17.6252 164.983 17.5402L164.88 17.2291H164.275L164.188 17.5079ZM164.577 16.325H164.573L164.325 17.0806H164.826L164.577 16.325Z" fill="#2F292A"/>
<path d="M165.609 17.9013C165.49 17.8968 165.368 17.8897 165.242 17.8897C165.11 17.8897 164.977 17.8968 164.841 17.9013L164.831 17.9038V17.8897V17.7976H164.839H164.87C164.93 17.7976 165.025 17.784 165.025 17.7332C165.025 17.701 165 17.627 164.97 17.5429L164.868 17.2424H164.279L164.194 17.5107C164.169 17.6028 164.138 17.6733 164.138 17.7161C164.138 17.7805 164.237 17.7976 164.328 17.7976H164.367V17.8102V17.9038L164.356 17.9013C164.248 17.8968 164.14 17.8897 164.033 17.8897C163.937 17.8897 163.841 17.8968 163.744 17.9013L163.734 17.9038V17.8897V17.7976H163.744H163.761C163.859 17.7976 163.943 17.7392 163.983 17.631L164.411 16.4058C164.445 16.3082 164.493 16.1733 164.517 16.0661C164.599 16.0384 164.707 15.9855 164.759 15.9513C164.768 15.9488 164.774 15.9473 164.784 15.9473C164.792 15.9473 164.806 15.9473 164.814 15.9624C164.824 15.9835 164.831 16.0087 164.839 16.0293L165.331 17.4256C165.362 17.5193 165.392 17.6179 165.427 17.699C165.461 17.7704 165.508 17.7976 165.594 17.7976H165.621V17.8102V17.9038L165.609 17.9013ZM164.85 17.8787C164.985 17.8726 165.115 17.8671 165.242 17.8671C165.364 17.8671 165.483 17.8726 165.597 17.8787V17.8208H165.594C165.502 17.8208 165.438 17.785 165.408 17.7065C165.372 17.626 165.34 17.5283 165.308 17.4337L164.816 16.0379C164.807 16.0152 164.802 15.9916 164.793 15.9719L164.792 15.9694H164.789H164.784C164.778 15.9694 164.777 15.9694 164.77 15.9719C164.717 16.0067 164.611 16.058 164.532 16.0802C164.515 16.1813 164.467 16.3142 164.433 16.4119L164.002 17.6396C163.964 17.7553 163.871 17.8208 163.761 17.8208H163.757V17.8787C163.848 17.8726 163.941 17.8671 164.033 17.8671C164.137 17.8671 164.243 17.8726 164.345 17.8787V17.8208H164.328C164.24 17.8208 164.118 17.8117 164.115 17.7161C164.115 17.6637 164.148 17.5948 164.175 17.5062L164.186 17.5082L164.175 17.5062L164.264 17.2193H164.887L164.993 17.5364C165.023 17.6224 165.048 17.6914 165.048 17.7332C165.043 17.8137 164.93 17.8183 164.87 17.8208H164.85V17.8787ZM164.305 17.0899L164.562 16.3127H164.571H164.575V16.3253L164.573 16.3263L164.575 16.3253V16.3127H164.584L164.839 17.0899H164.305ZM164.336 17.0687H164.806L164.573 16.351L164.336 17.0687ZM164.564 16.3278L164.571 16.3263L164.564 16.3278Z" fill="#2F292A"/>
<path d="M165.728 16.1583C165.529 16.1583 165.518 16.2056 165.479 16.4014H165.398C165.409 16.3264 165.422 16.2514 165.431 16.1734C165.442 16.0984 165.448 16.0249 165.448 15.9474H165.511C165.533 16.0269 165.599 16.0249 165.672 16.0249H167.05C167.122 16.0249 167.191 16.0234 167.194 15.9434L167.26 15.9509C167.249 16.0249 167.239 16.0979 167.229 16.1684C167.224 16.2413 167.224 16.3128 167.224 16.3863L167.146 16.414C167.141 16.3163 167.125 16.1583 166.945 16.1583H166.509V17.5793C166.509 17.7852 166.6 17.8103 166.73 17.8103H166.782V17.8898C166.676 17.8898 166.49 17.8783 166.346 17.8783C166.185 17.8783 165.999 17.8898 165.894 17.8898V17.8103H165.944C166.09 17.8103 166.166 17.7967 166.166 17.5868V16.1583H165.728Z" fill="#2F292A"/>
<path d="M166.783 17.9019C166.677 17.9019 166.491 17.8913 166.348 17.8913C166.187 17.8913 166.001 17.9019 165.895 17.9019H165.884V17.8903V17.7997H165.895H165.945C166.092 17.7972 166.151 17.7946 166.156 17.5873V16.1703H165.729V16.1587V16.1461H166.179V17.5873C166.179 17.7997 166.092 17.8213 165.945 17.8213H165.907V17.8787C166.012 17.8787 166.192 17.8676 166.348 17.8676C166.487 17.8676 166.665 17.8787 166.77 17.8787V17.8213H166.732C166.602 17.8213 166.498 17.7926 166.498 17.5797V16.1461H166.946C167.127 16.1461 167.149 16.2997 167.154 16.3983L167.212 16.3777C167.212 16.3087 167.214 16.2383 167.22 16.1683C167.226 16.0988 167.237 16.0324 167.246 15.9629L167.207 15.9554C167.196 16.0344 167.119 16.0379 167.052 16.0379H165.674H165.666H165.661C165.596 16.0379 165.527 16.0344 165.504 15.9594H165.46C165.46 16.0334 165.454 16.1069 165.443 16.1748C165.438 16.2513 165.423 16.3193 165.412 16.3913H165.473C165.508 16.205 165.531 16.1436 165.729 16.1461V16.1587V16.1703C165.532 16.1728 165.536 16.2065 165.492 16.4059L165.49 16.4124H165.481H165.387L165.388 16.3983C165.4 16.3268 165.412 16.2513 165.421 16.1728C165.433 16.0988 165.438 16.0253 165.438 15.9478V15.9352H165.449H165.521L165.525 15.9458C165.542 16.0117 165.592 16.0138 165.661 16.0148H165.674H167.052C167.125 16.0138 167.181 16.0117 167.184 15.9438V15.9297L167.197 15.9317L167.274 15.9448L167.272 15.9554C167.262 16.0278 167.251 16.0988 167.241 16.1703C167.237 16.2418 167.237 16.3133 167.237 16.3872V16.3928L167.229 16.3963L167.134 16.433L167.132 16.4144C167.127 16.3168 167.116 16.1703 166.946 16.1703H166.522V17.5797C166.523 17.781 166.605 17.7972 166.732 17.7997H166.793V17.8107V17.9019H166.783Z" fill="#2F292A"/>
<path d="M167.355 17.8089H167.394C167.49 17.8089 167.592 17.7953 167.592 17.6558V16.255C167.592 16.1166 167.49 16.105 167.394 16.105H167.355V16.0234C167.461 16.0234 167.62 16.0325 167.751 16.0325C167.888 16.0325 168.047 16.0234 168.172 16.0234V16.105H168.135C168.039 16.105 167.937 16.1166 167.937 16.255V17.6558C167.937 17.7953 168.039 17.8089 168.135 17.8089H168.172V17.8884C168.043 17.8884 167.882 17.8773 167.75 17.8773C167.62 17.8773 167.461 17.8884 167.355 17.8884V17.8089Z" fill="#2F292A"/>
<path d="M168.172 17.9027C168.042 17.9027 167.883 17.8911 167.75 17.8911C167.62 17.8911 167.461 17.9027 167.356 17.9027H167.344V17.8911V17.8111V17.8H167.356H167.395C167.49 17.7975 167.579 17.789 167.579 17.6581V16.2572C167.579 16.1269 167.49 16.1193 167.395 16.1183H167.344V16.1077V16.0156H167.356C167.461 16.0156 167.623 16.0247 167.751 16.0247C167.885 16.0247 168.047 16.0156 168.172 16.0156H168.183V16.0257V16.1183H168.172H168.135C168.039 16.1193 167.948 16.1269 167.948 16.2572V17.6581C167.948 17.789 168.039 17.7975 168.135 17.8H168.183V17.8111V17.9027H168.172ZM168.16 17.8796V17.8217H168.135C168.04 17.8217 167.926 17.8046 167.926 17.6581V16.2572C167.926 16.1103 168.04 16.0936 168.135 16.0936H168.16V16.0388C168.039 16.0388 167.881 16.0488 167.751 16.0488C167.626 16.0488 167.472 16.0388 167.369 16.0388V16.0936H167.395C167.489 16.0936 167.603 16.1103 167.603 16.2572V17.6581C167.603 17.8046 167.489 17.8217 167.395 17.8217H167.369V17.8796C167.472 17.8781 167.623 17.868 167.75 17.868C167.88 17.868 168.034 17.8796 168.16 17.8796Z" fill="#2F292A"/>
<path d="M169.242 15.9844C169.811 15.9844 170.263 16.3382 170.263 16.907C170.263 17.5216 169.824 17.9288 169.255 17.9288C168.687 17.9288 168.254 17.5448 168.254 16.9695C168.254 16.4132 168.684 15.9844 169.242 15.9844ZM169.281 17.8106C169.8 17.8106 169.891 17.3545 169.891 16.9634C169.891 16.5753 169.679 16.1012 169.236 16.1012C168.768 16.1012 168.627 16.5164 168.627 16.8763C168.627 17.3545 168.848 17.8106 169.281 17.8106Z" fill="#2F292A"/>
<path d="M168.242 16.9713C168.245 16.4081 168.68 15.9772 169.242 15.9727V15.9863V15.9968C168.692 15.9968 168.265 16.4206 168.265 16.9713C168.268 17.5391 168.692 17.9192 169.255 17.9192C169.817 17.9192 170.252 17.515 170.254 16.9079C170.252 16.3462 169.803 15.9968 169.242 15.9968V15.9863V15.9727C169.814 15.9727 170.275 16.3311 170.275 16.9079C170.275 17.5291 169.828 17.9403 169.255 17.9428C168.683 17.9403 168.245 17.5517 168.242 16.9713ZM168.617 16.8782C168.617 16.5183 168.759 16.0915 169.236 16.0915C169.688 16.0915 169.899 16.5752 169.903 16.9653C169.899 17.3564 169.807 17.824 169.281 17.824V17.8124V17.8024C169.788 17.7999 169.877 17.3564 169.877 16.9653C169.877 16.5797 169.668 16.1141 169.236 16.1141C168.776 16.1141 168.641 16.5223 168.64 16.8782C168.64 17.3554 168.857 17.7999 169.281 17.8024V17.8124V17.824C168.837 17.824 168.617 17.3594 168.617 16.8782Z" fill="#2F292A"/>
<path d="M172.062 17.3634L172.069 17.3573V16.3567C172.069 16.1377 171.914 16.1055 171.834 16.1055H171.776V16.0234C171.902 16.0234 172.026 16.033 172.15 16.033C172.26 16.033 172.372 16.0234 172.478 16.0234V16.1055H172.441C172.329 16.1055 172.204 16.1246 172.204 16.4427V17.6584C172.204 17.7515 172.204 17.8446 172.218 17.9286H172.116L170.739 16.3944V17.4958C170.739 17.7288 170.787 17.8089 170.993 17.8089H171.038V17.8889C170.923 17.8889 170.806 17.8773 170.694 17.8773C170.572 17.8773 170.448 17.8889 170.328 17.8889V17.8089H170.367C170.551 17.8089 170.607 17.6835 170.607 17.4691V16.3441C170.607 16.1951 170.486 16.1055 170.364 16.1055H170.328V16.0234C170.431 16.0234 170.535 16.033 170.637 16.033C170.717 16.033 170.793 16.0234 170.875 16.0234L172.062 17.3634Z" fill="#2F292A"/>
<path d="M172.219 17.941L172.107 17.9365L170.752 16.4249V17.4961C170.756 17.7291 170.791 17.7961 170.993 17.7971H171.048V17.8097V17.9008H171.039C170.923 17.9008 170.807 17.8902 170.695 17.8902C170.572 17.8902 170.449 17.9008 170.329 17.9008H170.316V17.8892V17.7971H170.329H170.368C170.543 17.7961 170.592 17.6843 170.595 17.4699V16.3449C170.595 16.2004 170.479 16.1164 170.364 16.1164H170.316V16.1058V16.0137H170.329C170.431 16.0137 170.535 16.0232 170.637 16.0232C170.717 16.0232 170.794 16.0137 170.882 16.0147L172.058 17.3375V16.357C172.058 16.1425 171.915 16.1174 171.835 16.1164H171.767V16.1058V16.0137H171.777C171.903 16.0137 172.027 16.0232 172.151 16.0232C172.261 16.0232 172.37 16.0137 172.479 16.0137H172.491V16.0242V16.1164H172.479H172.441C172.33 16.1199 172.216 16.1289 172.213 16.4435V17.6586C172.213 17.7523 172.216 17.8454 172.228 17.9249L172.232 17.941H172.219ZM172.116 17.9179H172.205C172.193 17.8353 172.19 17.7498 172.19 17.6586V16.4435C172.19 16.1224 172.325 16.0932 172.441 16.0922H172.469V16.0373C172.363 16.0373 172.257 16.0474 172.151 16.0474C172.029 16.0474 171.909 16.0373 171.789 16.0373V16.0922H171.835C171.918 16.0932 172.081 16.131 172.081 16.357L172.077 17.3677L172.073 17.3717L172.063 17.3803L170.875 16.0373C170.794 16.0373 170.718 16.0474 170.637 16.0474C170.538 16.0474 170.439 16.0373 170.341 16.0373V16.0922H170.364C170.49 16.0932 170.618 16.1878 170.618 16.3449V17.4699C170.618 17.6843 170.559 17.8202 170.368 17.8202H170.341V17.8781C170.457 17.8781 170.577 17.8665 170.695 17.8665C170.805 17.8665 170.915 17.8781 171.027 17.8781V17.8202H170.993C170.782 17.8202 170.73 17.7291 170.73 17.4961V16.3665L172.116 17.9179ZM172.063 17.3642L172.073 17.3551L172.063 17.3642ZM172.058 17.3581V17.3556L172.055 17.3551L172.058 17.3581Z" fill="#2F292A"/>
<path d="M172.907 17.5079C172.884 17.598 172.849 17.668 172.849 17.7158C172.849 17.7959 172.961 17.81 173.049 17.81H173.079V17.8895C172.974 17.8824 172.864 17.8779 172.758 17.8779C172.66 17.8779 172.564 17.8824 172.469 17.8895V17.81H172.485C172.589 17.81 172.676 17.7475 172.717 17.6358L173.143 16.4066C173.179 16.3109 173.228 16.1765 173.244 16.0784C173.329 16.0497 173.436 15.9953 173.487 15.9631C173.495 15.9621 173.498 15.9551 173.508 15.9551C173.515 15.9551 173.521 15.9551 173.526 15.9641C173.533 15.9858 173.542 16.0104 173.551 16.0321L174.043 17.4299C174.073 17.524 174.108 17.6217 174.14 17.7027C174.171 17.7777 174.229 17.81 174.318 17.81H174.331V17.8895C174.214 17.8824 174.093 17.8779 173.965 17.8779C173.833 17.8779 173.7 17.8824 173.564 17.8895V17.81H173.593C173.654 17.81 173.758 17.7984 173.758 17.7329C173.758 17.6982 173.735 17.6252 173.705 17.5402L173.601 17.2291H172.992L172.907 17.5079ZM173.298 16.325H173.294L173.045 17.0806H173.545L173.298 16.325Z" fill="#2F292A"/>
<path d="M174.333 17.9013C174.213 17.8968 174.095 17.8907 173.967 17.8907C173.836 17.8907 173.702 17.8968 173.565 17.9013L173.555 17.9038V17.8897V17.7991H173.565H173.595C173.656 17.7991 173.747 17.784 173.75 17.7332C173.75 17.701 173.726 17.6295 173.695 17.5429L173.593 17.2424H173.004L172.922 17.5107C172.895 17.6028 172.863 17.6733 172.863 17.7161C172.863 17.7805 172.963 17.7991 173.05 17.7991H173.095V17.8102V17.9038L173.082 17.9013C172.973 17.8968 172.866 17.8907 172.759 17.8907C172.662 17.8907 172.566 17.8968 172.471 17.9013L172.461 17.9038V17.8897V17.7991H172.471H172.487C172.584 17.7976 172.668 17.7392 172.708 17.631L173.134 16.4058C173.169 16.3082 173.216 16.1733 173.244 16.0661C173.325 16.0384 173.431 15.9855 173.484 15.9513C173.491 15.9488 173.5 15.9473 173.51 15.9473C173.515 15.9473 173.53 15.9473 173.538 15.9624C173.546 15.9835 173.555 16.0087 173.561 16.0293L174.054 17.4256C174.087 17.5193 174.119 17.6179 174.153 17.699C174.185 17.7704 174.233 17.7976 174.32 17.7991H174.347V17.8102V17.9038L174.333 17.9013ZM173.578 17.8787C173.71 17.8726 173.84 17.8671 173.967 17.8671C174.092 17.8671 174.207 17.8726 174.323 17.8787V17.8208H174.32C174.228 17.8208 174.166 17.785 174.132 17.7065C174.098 17.626 174.064 17.5283 174.033 17.4347L173.541 16.0379C173.533 16.0152 173.524 15.9916 173.518 15.9719L173.515 15.9694H173.51C173.504 15.9694 173.5 15.9694 173.496 15.9719C173.442 16.0067 173.336 16.058 173.255 16.0802C173.24 16.1813 173.192 16.3142 173.158 16.4119L172.728 17.6396C172.688 17.7553 172.594 17.8208 172.487 17.8208H172.48V17.8787C172.576 17.8726 172.667 17.8671 172.759 17.8671C172.862 17.8671 172.969 17.8726 173.07 17.8787V17.8208H173.05C172.967 17.8208 172.843 17.8117 172.839 17.7161C172.841 17.6637 172.874 17.5948 172.9 17.5062L172.909 17.5082L172.9 17.5062L172.987 17.2193H173.611L173.719 17.5364C173.747 17.6224 173.771 17.6914 173.771 17.7332C173.766 17.8137 173.656 17.8183 173.595 17.8208H173.578V17.8787ZM173.032 17.0899L173.288 16.3127H173.296H173.3V16.3253V16.3263V16.3253V16.3127H173.31L173.561 17.0899H173.032ZM173.063 17.0687H173.53L173.3 16.351L173.063 17.0687ZM173.29 16.3278L173.296 16.3263L173.29 16.3278Z" fill="#2F292A"/>
<path d="M175.008 17.6276C175.008 17.7343 175.082 17.767 175.168 17.7786C175.276 17.7851 175.398 17.7851 175.521 17.7716C175.631 17.76 175.729 17.6965 175.775 17.6276C175.818 17.5697 175.844 17.4947 175.859 17.4363H175.935C175.908 17.5883 175.87 17.7383 175.838 17.8903C175.604 17.8903 175.367 17.8788 175.134 17.8788C174.9 17.8788 174.662 17.8903 174.43 17.8903V17.8108H174.465C174.56 17.8108 174.666 17.7967 174.666 17.6311V16.2564C174.666 16.1185 174.56 16.1069 174.465 16.1069H174.43V16.0254C174.567 16.0254 174.708 16.0345 174.85 16.0345C174.985 16.0345 175.121 16.0254 175.255 16.0254V16.1069H175.187C175.088 16.1069 175.008 16.1079 175.008 16.2509V17.6276Z" fill="#2F292A"/>
<path d="M175.835 17.9027C175.6 17.9027 175.365 17.8921 175.131 17.8921C174.897 17.8921 174.66 17.9027 174.424 17.9027H174.414V17.8911V17.8H174.424H174.462C174.557 17.7975 174.651 17.7895 174.652 17.6319V16.2572C174.651 16.1269 174.561 16.1193 174.462 16.1183H174.414V16.1077V16.0156H174.424C174.565 16.0156 174.705 16.0247 174.847 16.0247C174.983 16.0247 175.116 16.0156 175.253 16.0156H175.264V16.0257V16.1183H175.253H175.185C175.083 16.1213 175.018 16.1143 175.015 16.2517V17.6284C175.015 17.7296 175.083 17.7542 175.165 17.7678C175.213 17.7713 175.263 17.7713 175.313 17.7713C175.379 17.7713 175.448 17.7698 175.515 17.7618C175.625 17.7492 175.72 17.6863 175.765 17.6223C175.805 17.565 175.831 17.4925 175.845 17.4351L175.848 17.4255H175.857H175.949L175.946 17.4396C175.915 17.5926 175.878 17.7401 175.848 17.8932L175.845 17.9027H175.835ZM175.826 17.8796C175.857 17.7341 175.892 17.5926 175.921 17.4487H175.867C175.848 17.5076 175.824 17.5791 175.783 17.6364C175.732 17.7064 175.635 17.7713 175.518 17.7849C175.448 17.7945 175.379 17.7975 175.313 17.7975C175.263 17.7975 175.211 17.7955 175.164 17.7895C175.078 17.7804 174.992 17.7447 174.992 17.6284V16.2517C174.992 16.1032 175.086 16.0936 175.185 16.0936H175.241V16.0388C175.111 16.0388 174.979 16.0488 174.847 16.0488C174.709 16.0488 174.573 16.0388 174.438 16.0388V16.0936H174.462C174.557 16.0936 174.675 16.1103 174.675 16.2572V17.6319C174.675 17.8046 174.557 17.8217 174.462 17.8217H174.438V17.8796C174.667 17.8796 174.9 17.868 175.131 17.868C175.36 17.868 175.596 17.8796 175.826 17.8796Z" fill="#2F292A"/>
<path d="M175.902 15.9492C176.063 15.9492 176.183 16.0751 176.183 16.2326C176.183 16.3912 176.063 16.5125 175.902 16.5125C175.742 16.5125 175.621 16.3912 175.621 16.2326C175.621 16.0751 175.742 15.9492 175.902 15.9492ZM175.902 16.4586C176.028 16.4586 176.126 16.3514 176.126 16.2326C176.126 16.1098 176.028 16.0021 175.902 16.0021C175.777 16.0021 175.681 16.1098 175.681 16.2326C175.681 16.3514 175.777 16.4586 175.902 16.4586ZM175.762 16.3811V16.365C175.798 16.363 175.803 16.363 175.803 16.3423V16.1324C175.803 16.1037 175.8 16.0932 175.764 16.0947V16.0806H175.905C175.959 16.0806 176.003 16.1048 176.003 16.1551C176.003 16.1969 175.975 16.2291 175.937 16.2381L175.983 16.3041C176.003 16.3328 176.028 16.363 176.044 16.372V16.3811H175.989C175.963 16.3811 175.94 16.3262 175.888 16.2512H175.857V16.3459C175.857 16.363 175.863 16.363 175.898 16.365V16.3811H175.762ZM175.857 16.2326H175.889C175.926 16.2326 175.942 16.2049 175.942 16.1586C175.942 16.1138 175.919 16.0987 175.888 16.0987H175.857V16.2326Z" fill="#2F292A"/>
<path d="M126.801 20V16.832H124.389L123.145 15.46L121.897 16.832H113.941V10.432H111.373L114.561 3.22H117.633L118.729 5.688V3.22H122.529L123.189 5.08L123.853 3.22H126.801V0H106.801V20H126.801ZM124.793 16.028H126.801L124.145 13.212L126.801 10.428H124.825L123.185 12.22L121.561 10.428H119.553L122.193 13.228L119.553 16.028H121.505L123.153 14.22L124.793 16.028ZM125.265 13.216L126.801 14.852V11.596L125.265 13.216ZM116.317 14.736V13.864H119.477V12.6H116.317V11.728H119.557V10.432H114.793V16.028H119.557V14.732H116.317V14.736ZM125.289 9.62H126.801V4.024H124.449L123.193 7.512L121.945 4.024H119.553V9.62H121.065V5.704L122.505 9.62H123.849L125.289 5.692V9.62ZM117.837 9.62H119.557L117.085 4.024H115.121L112.649 9.62H114.329L114.793 8.5H117.369L117.837 9.62ZM116.837 7.244H115.317L116.077 5.412L116.837 7.244Z" fill="#006FCF"/>
<path d="M62.4165 18.8167V17.6921C62.4165 17.2708 62.1628 16.9895 61.7294 16.9864C61.5019 16.9824 61.2658 17.0539 61.1007 17.3036C60.9779 17.1052 60.7836 16.9864 60.5113 16.9864C60.32 16.9864 60.1187 17.0383 59.9737 17.2482V17.0317H59.6133V18.8167H59.9762V17.7933C59.9762 17.4828 60.164 17.3192 60.4282 17.3192C60.6869 17.3192 60.8319 17.4868 60.8319 17.7898V18.8167H61.1948V17.7933C61.1948 17.4828 61.3901 17.3192 61.6469 17.3192C61.9121 17.3192 62.0546 17.4868 62.0546 17.7898V18.8167H62.4165ZM68.2394 17.0317H67.5895V16.4891H67.2271V17.0317H66.8491V17.3559H67.2271V18.2005C67.2271 18.6158 67.3726 18.862 67.8321 18.862C68.0013 18.862 68.1936 18.8106 68.3184 18.724L68.2061 18.4064C68.0909 18.4729 67.9635 18.5071 67.8623 18.5071C67.668 18.5071 67.5895 18.3878 67.5895 18.2081V17.3559H68.2394V17.0317ZM71.554 16.9864C71.3305 16.9864 71.1694 17.0911 71.0677 17.2482V17.0317H70.7139V18.8167H71.0733V17.8125C71.0733 17.5175 71.2142 17.3262 71.4684 17.3262C71.5479 17.3262 71.6295 17.3373 71.712 17.3715L71.8303 17.0353C71.7458 17.0005 71.6335 16.9864 71.554 16.9864ZM66.5425 17.1737C66.3568 17.0494 66.0981 16.9864 65.8137 16.9864C65.3606 16.9864 65.0843 17.1999 65.0843 17.5547C65.0843 17.8462 65.2872 18.0218 65.6868 18.0767L65.8705 18.1039C66.0835 18.1331 66.1997 18.2081 66.1997 18.3083C66.1997 18.4472 66.0417 18.5373 65.7774 18.5373C65.4966 18.5373 65.3138 18.4517 65.182 18.3505L64.9992 18.6304C65.2645 18.8247 65.5821 18.862 65.7729 18.862C66.2883 18.862 66.5727 18.6229 66.5727 18.2826C66.5727 17.9695 66.3568 17.8084 65.9632 17.7526L65.7804 17.7264C65.6128 17.7032 65.4623 17.6519 65.4623 17.5321C65.4623 17.4007 65.6038 17.3121 65.8182 17.3121C66.0467 17.3121 66.2667 17.3972 66.3749 17.4651L66.5425 17.1737ZM71.9622 17.9237C71.9622 18.4663 72.3246 18.862 72.901 18.862C73.1698 18.862 73.348 18.8031 73.5423 18.6485L73.3555 18.3682C73.2095 18.4729 73.0575 18.5297 72.8889 18.5297C72.5783 18.5262 72.3357 18.2826 72.3357 17.9237C72.3357 17.5653 72.5783 17.3232 72.8889 17.3192C73.0575 17.3192 73.2095 17.375 73.3555 17.4802L73.5423 17.1999C73.348 17.0458 73.1698 16.9864 72.901 16.9864C72.3246 16.9864 71.9622 17.3821 71.9622 17.9237ZM69.4499 16.9864C68.928 16.9864 68.568 17.3635 68.568 17.9207C68.568 18.4885 68.9421 18.862 69.4761 18.862C69.7459 18.862 69.9921 18.7945 70.209 18.6113L70.0187 18.3465C69.8682 18.4663 69.6775 18.5333 69.4993 18.5333C69.2491 18.5333 68.9949 18.3918 68.9501 18.0697H70.2835C70.287 18.0218 70.2916 17.973 70.2916 17.9207C70.287 17.3635 69.9513 16.9864 69.4499 16.9864ZM69.4434 17.3192C69.7087 17.3192 69.8884 17.4908 69.9135 17.7712H68.9501C68.9823 17.5094 69.1545 17.3192 69.4434 17.3192ZM64.6066 17.9237V17.0317H64.2482V17.2482C64.1244 17.0876 63.9241 16.9864 63.6689 16.9864C63.1685 16.9864 62.7875 17.3791 62.7875 17.9237C62.7875 18.4698 63.1685 18.862 63.6689 18.862C63.9241 18.862 64.1244 18.7613 64.2482 18.6007V18.8167H64.6066V17.9237ZM63.16 17.9237C63.16 17.5874 63.3734 17.3192 63.7187 17.3192C64.0464 17.3192 64.2638 17.5769 64.2638 17.9237C64.2638 18.2725 64.0464 18.5297 63.7187 18.5297C63.3734 18.5297 63.16 18.2609 63.16 17.9237ZM76.9505 16.9864C76.727 16.9864 76.5659 17.0911 76.4653 17.2482V17.0317H76.1094V18.8167H76.4703V17.8125C76.4703 17.5175 76.6107 17.3262 76.8654 17.3262C76.944 17.3262 77.026 17.3373 77.108 17.3715L77.2284 17.0353C77.1418 17.0005 77.029 16.9864 76.9505 16.9864ZM79.8302 18.5584C79.8549 18.5584 79.878 18.5635 79.8992 18.573C79.9218 18.5826 79.941 18.5942 79.9566 18.6108C79.9737 18.6269 79.9853 18.6455 79.9963 18.6667C80.0054 18.6888 80.0089 18.7104 80.0089 18.7361C80.0089 18.7603 80.0054 18.7829 79.9963 18.8036C79.9853 18.8257 79.9737 18.8453 79.9566 18.8599C79.941 18.8771 79.9218 18.8906 79.8992 18.8982C79.878 18.9083 79.8549 18.9123 79.8302 18.9123C79.8035 18.9123 79.7804 18.9083 79.7577 18.8982C79.7366 18.8906 79.7165 18.8771 79.7004 18.8599C79.6848 18.8453 79.6702 18.8257 79.6626 18.8036C79.652 18.7829 79.6475 18.7603 79.6475 18.7361C79.6475 18.7104 79.652 18.6888 79.6626 18.6667C79.6702 18.6455 79.6848 18.6269 79.7004 18.6108C79.7165 18.5942 79.7366 18.5826 79.7577 18.573C79.7804 18.5635 79.8035 18.5584 79.8302 18.5584ZM79.8302 18.874C79.8489 18.874 79.867 18.87 79.8831 18.862C79.8992 18.8554 79.9138 18.8458 79.9269 18.8338C79.9389 18.8207 79.9495 18.8056 79.9556 18.7895C79.9631 18.7729 79.9661 18.7558 79.9661 18.7361C79.9661 18.716 79.9631 18.6989 79.9556 18.6812C79.9495 18.6651 79.9389 18.65 79.9269 18.638C79.9138 18.6249 79.8992 18.6158 79.8831 18.6088C79.867 18.6012 79.8489 18.5977 79.8302 18.5977C79.8106 18.5977 79.792 18.6012 79.7743 18.6088C79.7577 18.6158 79.7436 18.6249 79.7306 18.638C79.719 18.65 79.7084 18.6651 79.7014 18.6812C79.6938 18.6989 79.6903 18.716 79.6903 18.7361C79.6903 18.7558 79.6938 18.7729 79.7014 18.7895C79.7084 18.8056 79.719 18.8207 79.7306 18.8338C79.7436 18.8458 79.7577 18.8554 79.7743 18.862C79.792 18.87 79.8106 18.874 79.8302 18.874ZM79.8393 18.6531C79.8614 18.6531 79.8775 18.6571 79.8891 18.6667C79.9007 18.6767 79.9062 18.6898 79.9062 18.7049C79.9062 18.719 79.9007 18.7306 79.8921 18.7386C79.8831 18.7477 79.8705 18.7532 79.8529 18.7558L79.9062 18.8167H79.8645L79.8151 18.7558H79.799V18.8167H79.7643V18.6531H79.8393ZM79.799 18.6833V18.7286H79.8393C79.8489 18.7286 79.8559 18.7245 79.8614 18.7215C79.868 18.718 79.8705 18.7125 79.8705 18.7049C79.8705 18.6979 79.868 18.6923 79.8614 18.6898C79.8559 18.6858 79.8489 18.6833 79.8393 18.6833H79.799ZM75.5773 17.9237V17.0317H75.2169V17.2482C75.0946 17.0876 74.8923 16.9864 74.6381 16.9864C74.1362 16.9864 73.7557 17.3791 73.7557 17.9237C73.7557 18.4698 74.1362 18.862 74.6381 18.862C74.8923 18.862 75.0946 18.7613 75.2169 18.6007V18.8167H75.5773V17.9237ZM74.1292 17.9237C74.1292 17.5874 74.3426 17.3192 74.6864 17.3192C75.0161 17.3192 75.232 17.5769 75.232 17.9237C75.232 18.2725 75.0161 18.5297 74.6864 18.5297C74.3426 18.5297 74.1292 18.2609 74.1292 17.9237ZM79.1829 17.9237V16.3145H78.824V17.2482C78.6997 17.0876 78.4978 16.9864 78.2441 16.9864C77.7438 16.9864 77.3628 17.3791 77.3628 17.9237C77.3628 18.4698 77.7438 18.862 78.2441 18.862C78.4978 18.862 78.6997 18.7613 78.824 18.6007V18.8167H79.1829V17.9237ZM77.7347 17.9237C77.7347 17.5874 77.9492 17.3192 78.293 17.3192C78.6206 17.3192 78.8376 17.5769 78.8376 17.9237C78.8376 18.2725 78.6206 18.5297 78.293 18.5297C77.9492 18.5297 77.7347 18.2609 77.7347 17.9237Z" fill="black"/>
<path d="M72.5932 3.43555H66.125V14.0001H72.5932V3.43555Z" fill="#F37A2B"/>
<path d="M66.7922 8.71884C66.7922 6.57554 67.7964 4.6663 69.3583 3.43659C68.2167 2.53709 66.7741 2 65.2071 2C61.4969 2 58.4883 5.00758 58.4883 8.71884C58.4883 12.4291 61.4969 15.4377 65.2071 15.4377C66.7741 15.4377 68.2167 14.9016 69.3583 14.0011C67.7964 12.7709 66.7922 10.8616 66.7922 8.71884Z" fill="#EA3630"/>
<path d="M79.588 12.8823V12.6654H79.6741V12.6216H79.4531V12.6654H79.5402V12.8823H79.588ZM80.0184 12.8823V12.6211H79.9519L79.8724 12.8003L79.7949 12.6211H79.7264V12.8823H79.7743V12.6855L79.8472 12.8547H79.8976L79.9701 12.6845V12.8823H80.0184Z" fill="white"/>
<path d="M80.2309 8.71884C80.2309 12.4291 77.2219 15.4377 73.5116 15.4377C71.9451 15.4377 70.5025 14.9016 69.3594 14.0011C70.9218 12.7709 71.9265 10.8616 71.9265 8.71884C71.9265 6.57554 70.9218 4.6663 69.3594 3.43659C70.5025 2.53709 71.9451 2 73.5116 2C77.2219 2 80.2309 5.00758 80.2309 8.71884Z" fill="#F9AC22"/>
<path d="M31.4869 0H0V20H31.4869V0Z" fill="white"/>
<path d="M30.9607 16.75H0.523438V19.4759H30.9607V16.75Z" fill="#F7B600"/>
<path d="M30.9607 0.525391H0.523438V3.25134H30.9607V0.525391Z" fill="#1A1F71"/>
<path d="M12.7113 6.25424L9.56261 13.7615H7.50722L5.96203 7.77028C5.87457 7.40585 5.7871 7.26007 5.49556 7.1143C5.02909 6.86649 4.25649 6.61867 3.58594 6.4729L3.62967 6.25424H6.93871C7.36145 6.25424 7.74046 6.53121 7.82792 7.01226L8.64425 11.3709L10.6559 6.26882H12.7113V6.25424ZM20.7434 11.3126C20.7579 9.33004 18.0028 9.228 18.032 8.33879C18.032 8.0764 18.2944 7.78485 18.8483 7.71197C19.1253 7.68281 19.8979 7.65366 20.7579 8.04724L21.0932 6.45832C20.6267 6.2834 20.0291 6.12305 19.2711 6.12305C17.3469 6.12305 16.0058 7.14345 15.9912 8.60118C15.9766 9.6799 16.9533 10.2776 17.6821 10.642C18.4402 11.0064 18.688 11.2397 18.688 11.5749C18.688 12.0851 18.0903 12.3038 17.5218 12.3038C16.5451 12.3184 15.9766 12.0414 15.5247 11.8228L15.1749 13.47C15.6268 13.6741 16.4722 13.8636 17.3323 13.8636C19.4023 13.8781 20.7434 12.8723 20.7434 11.3126ZM25.8163 13.7615H27.6093L26.0349 6.25424H24.3731C23.9941 6.25424 23.688 6.4729 23.5422 6.80818L20.6268 13.7615H22.6676L23.0757 12.6391H25.5684L25.8163 13.7615ZM23.6442 11.1085L24.6646 8.29506L25.2477 11.1085H23.6442ZM15.481 6.25424L13.8775 13.7615H11.9387L13.5422 6.25424H15.481Z" fill="#1A1F71"/>
</svg>
